<svg enable-background="new 0 0 100 100" viewBox="0 0 100 100" xmlns="http://www.w3.org/2000/svg"><g id="Layer_1"/><g id="Layer_2"><path d="m89.442 11.418c-12.533 5.19-66.27 27.449-81.118 33.516-9.958 3.886-4.129 7.529-4.129 7.529s8.5 2.914 15.786 5.1 11.172-.243 11.172-.243l34.244-23.073c12.143-8.257 9.229-1.457 6.315 1.457-6.315 6.315-16.758 16.272-25.501 24.287-3.886 3.4-1.943 6.315-.243 7.772 6.315 5.343 23.558 16.272 24.53 17.001 5.131 3.632 15.223 8.861 16.758-2.186 0 0 6.072-38.13 6.072-38.13 1.943-12.872 3.886-24.773 4.129-28.173.728-8.257-8.015-4.857-8.015-4.857z"/></g></svg>